<svg width="16" height="16" viewBox="0 0 16 16" fill="none" xmlns="http://www.w3.org/2000/svg">
<path d="M6 7.5H3.5C3.10218 7.5 2.72064 7.34196 2.43934 7.06066C2.15804 6.77936 2 6.39782 2 6V3.5C2 3.10218 2.15804 2.72064 2.43934 2.43934C2.72064 2.15804 3.10218 2 3.5 2H6C6.39782 2 6.77936 2.15804 7.06066 2.43934C7.34196 2.72064 7.5 3.10218 7.5 3.5V6C7.5 6.39782 7.34196 6.77936 7.06066 7.06066C6.77936 7.34196 6.39782 7.5 6 7.5Z" fill="#3A3939"/>
<path d="M12.5 7.5H10C9.60218 7.5 9.22064 7.34196 8.93934 7.06066C8.65804 6.77936 8.5 6.39782 8.5 6V3.5C8.5 3.10218 8.65804 2.72064 8.93934 2.43934C9.22064 2.15804 9.60218 2 10 2H12.5C12.8978 2 13.2794 2.15804 13.5607 2.43934C13.842 2.72064 14 3.10218 14 3.5V6C14 6.39782 13.842 6.77936 13.5607 7.06066C13.2794 7.34196 12.8978 7.5 12.5 7.5Z" fill="#3A3939"/>
<path d="M6 14H3.5C3.10218 14 2.72064 13.842 2.43934 13.5607C2.15804 13.2794 2 12.8978 2 12.5V10C2 9.60218 2.15804 9.22064 2.43934 8.93934C2.72064 8.65804 3.10218 8.5 3.5 8.5H6C6.39782 8.5 6.77936 8.65804 7.06066 8.93934C7.34196 9.22064 7.5 9.60218 7.5 10V12.5C7.5 12.8978 7.34196 13.2794 7.06066 13.5607C6.77936 13.842 6.39782 14 6 14Z" fill="#3A3939"/>
<path d="M12.5 14H10C9.60218 14 9.22064 13.842 8.93934 13.5607C8.65804 13.2794 8.5 12.8978 8.5 12.5V10C8.5 9.60218 8.65804 9.22064 8.93934 8.93934C9.22064 8.65804 9.60218 8.5 10 8.5H12.5C12.8978 8.5 13.2794 8.65804 13.5607 8.93934C13.842 9.22064 14 9.60218 14 10V12.5C14 12.8978 13.842 13.2794 13.5607 13.5607C13.2794 13.842 12.8978 14 12.5 14Z" fill="#3A3939"/>
</svg>
